<svg xmlns="http://www.w3.org/2000/svg" viewBox="0 0 512 512">
  <!-- Dark background square -->
  <rect width="512" height="512" rx="96" fill="#0f172a"/>

  <!-- Wheat icon, centered and scaled up. Original lucide viewBox 0 0 24 24, -->
  <!-- scaled with transform: translate(60,60) scale(16.3) to fill ~390x390 of canvas -->
  <g transform="translate(60,60) scale(16.3)" stroke="#fbbf24" stroke-width="1.5" stroke-linecap="round" stroke-linejoin="round" fill="none">
    <!-- Main stem -->
    <path d="M2 22 12 12"/>
    <!-- Top grain -->
    <path d="M7.5 11.5 12 12"/>
    <path d="M7.5 11.5C6.5 9.5 7 7 9 6c0 2-1 3.5-1.5 5.5z"/>
    <!-- Right grain pairs going up the stalk -->
    <path d="M16.5 11.5 12 12"/>
    <path d="M16.5 11.5C17.5 9.5 17 7 15 6c0 2 1 3.5 1.5 5.5z"/>
    <path d="M7.5 15.5 12 16"/>
    <path d="M7.5 15.5C6.5 13.5 7 11 9 10c0 2-1 3.5-1.5 5.5z"/>
    <path d="M16.5 15.5 12 16"/>
    <path d="M16.5 15.5C17.5 13.5 17 11 15 10c0 2 1 3.5 1.5 5.5z"/>
    <path d="M7.5 19.5 12 20"/>
    <path d="M7.5 19.5C6.5 17.5 7 15 9 14c0 2-1 3.5-1.5 5.5z"/>
    <path d="M16.5 19.5 12 20"/>
    <path d="M16.5 19.5C17.5 17.5 17 15 15 14c0 2 1 3.5 1.5 5.5z"/>
    <!-- Top spike -->
    <path d="M12 8 12 12"/>
    <path d="M10 5.5C10 3.5 11 2 12 2s2 1.5 2 3.5c0 1.5-2 2.5-2 2.5s-2-1-2-2.5z"/>
  </g>
</svg>
